<?xml version="1.0" encoding="utf-8"?>
<!-- Generator: Adobe Illustrator 27.3.1, SVG Export Plug-In . SVG Version: 6.00 Build 0)  -->
<svg version="1.1" id="Layer_1" xmlns="http://www.w3.org/2000/svg" xmlns:xlink="http://www.w3.org/1999/xlink" x="0px" y="0px"
	 viewBox="0 0 667.9 143.7" style="enable-background:new 0 0 667.9 143.7; " xml:space="preserve">
<path d="M645.4,98.1V85.8h-27.6V73.5h24.7V62h-24.7V50.8h26.1V38.7H604v59.4C604,98.1,645.4,98.1,645.4,98.1z M570.6,60.6
	c-0.6,0.9-1.5,1.7-2.5,2.2c-1.1,0.5-2.2,0.8-3.4,1s-2.4,0.3-3.6,0.3h-6.8V50.3h7.7c1.1,0,2.2,0.1,3.3,0.2c1.1,0.2,2.1,0.5,3.1,1
	c0.9,0.5,1.7,1.2,2.3,2c0.6,1,0.9,2.2,0.9,3.4C571.6,58.2,571.3,59.5,570.6,60.6 M588.9,98.1l-15.5-25.4c3.6-1,6.8-3,9.1-5.9
	c2.2-2.9,3.4-6.5,3.3-10.2c0.1-2.9-0.6-5.9-1.9-8.5c-1.2-2.2-3-4.1-5.2-5.5s-4.7-2.5-7.3-3c-2.7-0.6-5.5-0.9-8.3-0.9h-22.6v59.4h14
	V74.5h4.9l12.9,23.6H588.9z M508,75.6c-0.8,2.1-2,4.1-3.5,5.8c-1.5,1.6-3.4,2.9-5.4,3.8c-4.4,1.9-9.4,1.9-13.8,0
	c-2-0.9-3.8-2.2-5.3-3.8c-1.5-1.7-2.7-3.7-3.5-5.8c-1.7-4.7-1.7-9.9,0-14.6c0.7-2.1,1.9-4.1,3.5-5.7c3.2-3.3,7.6-5.2,12.2-5.2
	c2.4,0,4.7,0.4,6.9,1.4c2,0.9,3.9,2.2,5.4,3.8c1.5,1.7,2.7,3.6,3.5,5.7c0.9,2.3,1.3,4.7,1.3,7.2C509.3,70.7,508.9,73.2,508,75.6
	 M522.2,55.3c-1.5-3.7-3.8-7.1-6.8-9.8s-6.5-4.8-10.3-6.2c-8.4-2.9-17.4-2.9-25.8,0c-3.8,1.4-7.2,3.5-10.2,6.2
	c-2.9,2.8-5.2,6.1-6.8,9.8c-1.7,4.1-2.5,8.5-2.4,12.9c0,4.4,0.8,8.7,2.4,12.8c1.5,3.8,3.8,7.2,6.8,10c2.9,2.8,6.4,5,10.2,6.4
	c8.3,3,17.5,3,25.8,0c3.8-1.4,7.3-3.6,10.3-6.4c2.9-2.8,5.2-6.2,6.8-10c1.7-4.1,2.5-8.5,2.4-12.9C524.7,63.7,523.8,59.4,522.2,55.3
	 M451.3,89.8l-10-9.4c-1.4,1.8-3.1,3.3-5.1,4.4c-2.3,1.2-4.9,1.7-7.5,1.7c-2.3,0-4.6-0.4-6.8-1.3c-2-0.9-3.8-2.1-5.3-3.7
	c-1.5-1.7-2.7-3.6-3.5-5.7c-0.9-2.4-1.3-4.9-1.3-7.4s0.4-4.9,1.3-7.2c0.8-2.1,2-4.1,3.5-5.8c1.5-1.6,3.4-2.9,5.4-3.8
	c2.2-0.9,4.5-1.4,6.9-1.4c2.3,0,4.6,0.5,6.7,1.3c2.1,0.9,4,2.3,5.3,4.2l9.7-9.7c-2.7-3-6.1-5.2-9.9-6.5c-8.1-2.9-16.9-2.9-25,0
	c-3.8,1.3-7.3,3.4-10.3,6.2c-2.9,2.8-5.3,6.2-6.8,9.9c-1.7,4.1-2.5,8.5-2.5,12.9c-0.1,4.4,0.8,8.7,2.4,12.7
	c3.1,7.6,9.2,13.5,16.9,16.4c4.1,1.5,8.4,2.3,12.7,2.3c4.6,0.1,9.1-0.8,13.3-2.6C445.2,95.5,448.5,92.9,451.3,89.8 M382.9,98.1V85.8
	h-27.6V73.5h24.6V62h-24.6V50.8h26.1V38.7h-39.9v59.4C341.5,98.1,382.9,98.1,382.9,98.1z M325.7,50.9V38.7h-47.9v12.2h16.8V98h14.3
	V50.9H325.7z M262.1,38.7h-14.4v59.4h14.4V38.7z M230.2,44.5c-2.7-2.4-5.8-4.3-9.2-5.4c-3.3-1.2-6.8-1.8-10.3-1.8
	c-2.8,0-5.6,0.3-8.3,1c-2.6,0.7-5.1,1.8-7.4,3.4c-2.2,1.5-4,3.5-5.3,5.8c-1.4,2.6-2.1,5.5-2,8.5c-0.2,4.4,1.5,8.6,4.7,11.6
	c1.4,1.3,3.1,2.4,4.9,3.2c1.8,0.8,3.7,1.6,5.6,2.2c2,0.6,3.7,1.2,5.2,1.7c1.4,0.4,2.7,1,3.9,1.8c0.9,0.6,1.7,1.3,2.4,2.1
	c0.6,0.8,0.9,1.8,0.8,2.8c0,1-0.2,2.1-0.7,3c-0.4,0.8-1,1.5-1.8,2s-1.7,0.9-2.6,1.1c-1,0.2-2.1,0.3-3.1,0.3c-2.5,0-4.9-0.6-7.1-1.8
	c-2.2-1.1-4.2-2.6-5.7-4.5l-9.4,9.6c2.8,2.8,6.2,5,9.9,6.3c3.9,1.5,8.1,2.3,12.3,2.3c2.9,0,5.7-0.4,8.5-1.2c2.6-0.7,5.1-2,7.3-3.6
	c2.1-1.7,3.8-3.8,5-6.2c1.3-2.7,2-5.8,1.9-8.8c0.1-2.6-0.5-5.2-1.8-7.4c-1.1-1.9-2.6-3.6-4.4-5c-1.8-1.4-3.8-2.4-5.9-3.2
	c-2.2-0.8-4.3-1.6-6.3-2.2c-1.4-0.4-2.7-0.9-3.8-1.3c-1-0.4-2-0.8-2.9-1.4c-1.5-0.9-2.5-2.5-2.4-4.3c0-1,0.2-2,0.8-2.9
	c0.5-0.7,1.2-1.4,2-1.8c0.8-0.5,1.7-0.8,2.6-1c1-0.2,1.9-0.2,2.9-0.2c4.1,0.1,7.9,2,10.5,5.1L230.2,44.5z"/>
<path d="M68.5,104.8c5.6-0.7,11.1-2.4,16-5.2c12.1-6.8,19.1-18.4,19.7-32.7l0.1-1.2h16.8c-1-8.3-4.2-16.2-9.1-23L94.8,53.6
	c5.2,7.9,5.9,17.9,1.9,26.4C92,90.8,80.9,100.2,68.5,104.8"/>
<path d="M121.3,68.2h-14.6c-1,14.5-8.6,26.7-21,33.6c-7.2,3.9-15.2,6-23.4,5.9c-6.5,0-13-1.2-19.1-3.5c7.3,4.7,15.9,7.2,24.6,7.2
	h0.1c15.7,0,30.1-8.5,37.7-22.3l0.7-1.2l9.8,6.2c3.5-6.9,5.4-14.6,5.4-22.4C121.4,70.6,121.4,69.4,121.3,68.2"/>
<path d="M67.9,114L67.9,114c-15.7,0-30.4-7.8-40.9-21.1c11.6,24.8,41.2,35.5,65.9,23.8c9.2-4.3,16.9-11.4,22-20.2l-7.6-4.8
	C99,105.6,84.1,114.1,67.9,114"/>
<path d="M71.8,124c-28.8,0-52.2-23.4-52.2-52.2S43,19.6,71.8,19.6S124,43,124,71.8l0,0l0,0C124,100.6,100.7,124,71.8,124L71.8,124
	L71.8,124 M71.8,0C32.1,0-0.1,32.1-0.1,71.8s32.1,71.9,71.8,71.9s71.9-32.1,71.9-71.8v-0.1C143.6,32.2,111.5,0,71.8,0L71.8,0"/>
<path d="M660.8,44.4v-1.8h1.1c0.3,0,0.6,0.1,0.9,0.2c0.3,0.1,0.4,0.4,0.4,0.7c0,0.4-0.2,0.6-0.5,0.8c-0.3,0.1-0.6,0.2-1,0.2H660.8z
	 M659.7,48h1.2v-2.7h0.8l1.5,2.7h1.4l-1.7-2.8c0.5-0.1,0.8-0.3,1.1-0.6c0.3-0.3,0.4-0.7,0.4-1.1c0-0.4-0.1-0.6-0.2-0.9
	c-0.1-0.2-0.3-0.4-0.5-0.6c-0.2-0.2-0.5-0.3-0.8-0.3c-0.3-0.1-0.6-0.1-0.9-0.1h-2.3V48z M657.4,42.9c0.3-0.6,0.6-1.1,1-1.5
	c0.4-0.4,0.9-0.8,1.5-1c0.6-0.3,1.2-0.4,1.9-0.4c0.7,0,1.3,0.1,1.9,0.4c0.6,0.3,1.1,0.6,1.5,1c0.4,0.4,0.8,0.9,1,1.5
	c0.3,0.6,0.4,1.2,0.4,1.9c0,0.7-0.1,1.3-0.4,1.9c-0.3,0.6-0.6,1.1-1,1.6c-0.4,0.4-0.9,0.8-1.5,1c-0.6,0.3-1.2,0.4-1.9,0.4
	c-0.7,0-1.3-0.1-1.9-0.4c-0.6-0.3-1.1-0.6-1.5-1c-0.4-0.4-0.8-1-1-1.6c-0.3-0.6-0.4-1.2-0.4-1.9C657.1,44.2,657.2,43.5,657.4,42.9
	 M656.6,47c0.3,0.7,0.7,1.3,1.2,1.8c0.5,0.5,1.1,0.9,1.8,1.2c0.7,0.3,1.4,0.4,2.2,0.4c0.8,0,1.5-0.1,2.2-0.4
	c0.7-0.3,1.3-0.7,1.8-1.2c0.5-0.5,0.9-1.1,1.2-1.8c0.3-0.7,0.5-1.4,0.5-2.2s-0.2-1.5-0.5-2.2c-0.3-0.7-0.7-1.3-1.2-1.8
	c-0.5-0.5-1.1-0.9-1.8-1.2c-0.7-0.3-1.4-0.5-2.2-0.5c-0.8,0-1.5,0.2-2.2,0.5c-0.7,0.3-1.3,0.7-1.8,1.2c-0.5,0.5-0.9,1.1-1.2,1.8
	c-0.3,0.7-0.5,1.4-0.5,2.2S656.3,46.4,656.6,47"/>
</svg>
