<?xml version="1.0" encoding="UTF-8"?><svg id="Calque_1" xmlns="http://www.w3.org/2000/svg" viewBox="0 0 566.93 231.41"><defs><style>.cls-1{fill:#231f20;}</style></defs><path class="cls-1" d="M10.44,43.86l1.06,.97c3.8,3.36,8.58,6.1,14.15,6.1,2.39,0,6.36-.97,6.81-3.98,.53-3.01-2.65-3.27-4.77-3.71l-4.78-.88c-9.2-1.68-16.27-7.25-14.59-17.69C10.79,8.84,26.62,0,41.12,0c7.61,0,14.33,1.86,20.25,5.83l-9.28,17.07c-3.71-2.83-8.05-5.04-13.26-5.04-2.12,0-5.31,.8-5.75,3.54-.35,2.48,2.56,2.83,4.33,3.27l5.31,1.24c9.9,2.3,16.45,7.78,14.68,19.1-2.57,15.92-18.3,23.79-32.72,23.79-8.4,0-17.77-2.3-24.67-6.1l10.44-18.84Z"/><path class="cls-1" d="M133.97,65.61l-20.25,7.96-3.45-8.13c-6.01,2.48-12.56,3.36-18.66,3.36-20.16,0-33.25-13.8-30.07-34.22C65,13.26,83.66,0,103.82,0s34.75,12.82,31.31,34.58c-1.15,7.34-3.98,14.06-9.28,20.16l8.13,10.88Zm-39.97-24.67l15.47-2.83c.8-1.5,1.06-2.48,1.33-3.71,1.15-7.43-3.19-13-10.35-13-7.87,0-13.26,5.48-14.41,12.73-1.06,6.99,2.56,13.26,9.73,13.26,.97,0,1.86,0,2.83-.26l-4.6-6.19Z"/><path class="cls-1" d="M146.44,1.06h24.23l-7.16,45.28h20.34l-3.36,21.4h-44.57L146.44,1.06Z"/><path class="cls-1" d="M194.28,1.06h24.23l-10.53,66.68h-24.23L194.28,1.06Z"/><path class="cls-1" d="M13.35,82.37h24.67c22.37,0,38.03,9.82,34.13,34.31-3.18,19.81-19.1,32.37-38.65,32.37H2.83L13.35,82.37Zm16.89,46.69h1.5c8.05,0,14.77-3.71,16.18-12.47,1.5-9.37-3.27-13.35-12.12-13.35h-1.5l-4.07,25.82Z"/><path class="cls-1" d="M82.95,82.37h24.23l-10.53,66.68h-24.23l10.53-66.68Z"/><path class="cls-1" d="M181.02,109.78c-1.86,10.88-3.27,19.99-12.56,28.47-8.22,7.69-19.81,11.85-30.15,11.85-20.34,0-34.75-12.56-31.39-33.96,3.45-21.75,21.49-34.84,42.44-34.84,11.58,0,26.62,5.75,30.07,17.15l-23.97,8.31c-1.33-3.36-4.51-5.13-8.4-5.13-8.67,0-14.59,7.43-15.92,15.47-1.15,7.34,2.39,14.24,10.26,14.24,3.8,0,8.93-1.77,10.7-5.84h-10.96l2.48-15.74h37.41Z"/><path class="cls-1" d="M190.3,82.37h24.23l-10.52,66.68h-24.23l10.52-66.68Z"/><path class="cls-1" d="M217.63,82.37h50.94l-3.36,21.66-13.26-.62-7.25,45.63h-24.23l7.25-45.63-13.44,.62,3.36-21.66Z"/><path class="cls-1" d="M273.43,149.04h-25.64l33.69-66.68h26.79l13.26,66.68h-25.64l-.89-8.31h-18.3l-3.27,8.31Zm19.81-24.14l-.97-11.76c-.26-2.83-.17-5.74-.17-8.58h-.89l-7.69,20.34h9.73Z"/><path class="cls-1" d="M333.56,82.37h24.23l-7.16,45.28h20.34l-3.36,21.4h-44.57l10.53-66.68Z"/><path class="cls-1" d="M12.82,163.67H57.66l-2.83,18.22h-20.43l-1.06,6.36h18.66l-2.74,17.33H30.6l-.97,6.55h21.13l-2.92,18.22H2.3l10.52-66.68Z"/><path class="cls-1" d="M130.26,163.67l-25.73,31.21,18.13,35.46h-27.59l-5.39-14.15c-.44-1.33-.71-2.65-.71-4.06h-.71c-.71,1.59-1.59,3.09-2.65,4.6l-9.55,13.62h-27.59l29.01-35.46-16.09-31.21h27.32l3.45,9.46c.71,1.77,.97,3.63,1.24,5.48h.53c.71-1.95,1.77-3.71,2.92-5.48l6.1-9.46h27.32Z"/><path class="cls-1" d="M134.77,163.67h30.69c15.56,0,25.82,7.96,23.26,24.5-2.21,13.62-12.03,22.11-25.56,22.11h-12.38l-3.19,20.08h-23.34l10.52-66.68Zm18.66,29.8h2.39c4.25,0,8.93-.71,9.82-6.1,.79-5.22-4.07-5.48-8.05-5.48h-2.3l-1.86,11.58Z"/><path class="cls-1" d="M195.25,163.67h44.84l-2.83,18.22h-20.43l-1.06,6.36h18.66l-2.74,17.33h-18.66l-.97,6.55h21.13l-2.92,18.22h-45.54l10.52-66.68Z"/><path class="cls-1" d="M247.25,163.67h29.27c15.03,0,26.79,6.37,24.14,23.17-1.59,10.08-6.19,14.32-15.65,17.33l-.09,.53c1.06,.97,2.39,2.03,3.45,3.98l11.05,21.67h-27.94l-7.25-21.4h-.44l-3.36,21.4h-23.7l10.53-66.68Zm19.1,29.54h1.68c3.98,0,8.04-.62,8.84-5.57,.8-5.13-2.74-5.74-6.9-5.74h-1.86l-1.77,11.32Z"/><path class="cls-1" d="M310.83,163.67h24.23l-10.52,66.68h-24.23l10.52-66.68Z"/><path class="cls-1" d="M342.4,163.67h44.84l-2.83,18.22h-20.43l-1.06,6.36h18.66l-2.74,17.33h-18.66l-.97,6.55h21.13l-2.92,18.22h-45.54l10.52-66.68Z"/><path class="cls-1" d="M394.05,163.67h23.26l15.92,36.97h.71c-.09-5.57-.27-11.32,.71-16.98l3.09-19.98h23.17l-10.52,66.68h-23.17l-15.74-35.02h-.71c0,4.6,.09,8.93-.62,13.35l-3.45,21.67h-23.17l10.52-66.68Z"/><path class="cls-1" d="M513.16,190.73c-3.36-3.63-7.69-6.72-13.18-6.72-7.25,0-14.06,5.75-15.21,13-1.15,7.34,4.16,13,11.41,13,5.57,0,10.44-2.39,14.94-6.19l-4.69,24.93c-4.16,1.86-13.35,2.65-17.69,2.65-19.01,0-31.48-14.77-28.47-33.78,3.01-19.45,20.78-35.02,40.33-35.02,5.48,0,11.05,.97,15.83,2.74l-3.27,25.38Z"/><path class="cls-1" d="M522.09,163.67h44.84l-2.83,18.22h-20.43l-1.06,6.36h18.66l-2.74,17.33h-18.66l-.97,6.55h21.13l-2.92,18.22h-45.54l10.52-66.68Z"/></svg>